<svg xmlns="http://www.w3.org/2000/svg" data-name="Layer 1" viewBox="0 0 40 26"><defs><mask id="a" width="27.02" height="19.5" x="6.98" y="3.21" maskUnits="userSpaceOnUse"><path fill="#fff" d="M6.98 22.71H34V3.21H6.98v19.5z"/></mask></defs><path fill="#075695" d="M0 0h40v26H0z"/><g data-name="BC logo ORGNL cmyk"><g mask="url(#a)"><path fill="#fff" d="M34 21.03a1.67 1.67 0 0 1-1.64 1.68H8.62a1.67 1.67 0 0 1-1.64-1.68V4.9a1.67 1.67 0 0 1 1.64-1.68h23.74A1.67 1.67 0 0 1 34 4.9v16.14"/></g><path fill="#064d80" d="M28.69 8.66H22.2l-2.8 3.22-.66.75h-6.4l1.61-1.9H11a1 1 0 0 0-.98 1.03v2.16a1 1 0 0 0 .98 1.03h11.3a2.47 2.47 0 0 0 1.64-.76l4.76-5.53"/><path fill="#fdd915" d="M29.99 6.35a1 1 0 0 1 .98 1.02v2.17a1 1 0 0 1-.98 1.02h-2.94l.66-.76.98-1.14H22.2l-3.46 3.98H12.3l4.8-5.53a2.48 2.48 0 0 1 1.63-.76H30"/><path fill="#064d80" d="M12.23 18.63a.67.67 0 0 0-.1-.37.65.65 0 0 0-.26-.24.58.58 0 0 0 .25-.24.73.73 0 0 0 .09-.36v-.07a.82.82 0 0 0-.1-.4.7.7 0 0 0-.25-.27 1.2 1.2 0 0 0-.4-.14 2.85 2.85 0 0 0-.51-.04h-.2l-.2.01-.18.02-.14.01a.28.28 0 0 0-.16.08.29.29 0 0 0-.05.19v2.48a.28.28 0 0 0 .05.19.3.3 0 0 0 .17.07 1.44 1.44 0 0 0 .15.02l.18.02q.1.02.2 0h.2a2.8 2.8 0 0 0 .5-.03 1.14 1.14 0 0 0 .39-.15.76.76 0 0 0 .27-.28.9.9 0 0 0 .1-.44v-.06zm-.68-1.17a.38.38 0 0 1-.02.12.25.25 0 0 1-.06.1.34.34 0 0 1-.13.07.62.62 0 0 1-.2.03h-.44v-.7h.06l.09-.01H11a.83.83 0 0 1 .43.08.27.27 0 0 1 .12.25v.06zm.02 1.21a.32.32 0 0 1-.12.27.7.7 0 0 1-.43.09h-.32v-.77h.44a.42.42 0 0 1 .34.11.38.38 0 0 1 .09.26v.04zm2.85-.64a.98.98 0 0 0-.07-.38.66.66 0 0 0-.18-.26.76.76 0 0 0-.3-.15 1.5 1.5 0 0 0-.39-.04 2.62 2.62 0 0 0-.39.02l-.3.06a.09.09 0 0 0-.07.1v.32a.07.07 0 0 0 .02.06.08.08 0 0 0 .05.01h.14l.16-.02h.39a.4.4 0 0 1 .21.05q.08.05.08.23v.14h-.22a1.32 1.32 0 0 0-.74.17.6.6 0 0 0-.24.52v.04a.85.85 0 0 0 .06.33.56.56 0 0 0 .37.33.92.92 0 0 0 .26.04.88.88 0 0 0 .3-.05 1.01 1.01 0 0 0 .25-.13v.06a.08.08 0 0 0 .02.06.08.08 0 0 0 .06.02h.45a.08.08 0 0 0 .05-.02.08.08 0 0 0 .03-.06v-1.45zm-.64.98a1.04 1.04 0 0 1-.15.07.56.56 0 0 1-.18.02.38.38 0 0 1-.18-.03q-.07-.04-.07-.17v-.04a.48.48 0 0 1 .02-.13.2.2 0 0 1 .06-.1.26.26 0 0 1 .1-.05.67.67 0 0 1 .17-.02h.23v.45zm3.08.47v-1.36a2.06 2.06 0 0 0-.03-.36.82.82 0 0 0-.1-.3.56.56 0 0 0-.22-.2.75.75 0 0 0-.36-.06 1 1 0 0 0-.65.2v-.09a.08.08 0 0 0-.02-.06.08.08 0 0 0-.06-.02h-.44a.08.08 0 0 0-.06.02.08.08 0 0 0-.02.06v2.17a.08.08 0 0 0 .02.06.08.08 0 0 0 .06.02h.48a.07.07 0 0 0 .06-.02.09.09 0 0 0 .02-.06v-1.6a1.78 1.78 0 0 1 .2-.1.48.48 0 0 1 .18-.03.5.5 0 0 1 .15.01.17.17 0 0 1 .09.07.28.28 0 0 1 .04.11 1.13 1.13 0 0 1 .01.18v1.36a.09.09 0 0 0 .03.06.07.07 0 0 0 .05.02h.49a.08.08 0 0 0 .05-.02.08.08 0 0 0 .03-.06zm1.96-.04v-.36a.06.06 0 0 0-.02-.05.08.08 0 0 0-.05-.02h-.01l-.21.02-.28.01a.36.36 0 0 1-.13-.02.24.24 0 0 1-.1-.08.41.41 0 0 1-.07-.15.84.84 0 0 1-.02-.22v-.34a.84.84 0 0 1 .02-.23.41.41 0 0 1 .07-.15.24.24 0 0 1 .1-.07.36.36 0 0 1 .13-.03l.28.01.21.02a.08.08 0 0 0 .06-.02.06.06 0 0 0 .02-.05v-.36a.08.08 0 0 0-.02-.06.16.16 0 0 0-.06-.03l-.22-.04a2.12 2.12 0 0 0-.31-.02.9.9 0 0 0-.68.26 1.06 1.06 0 0 0-.25.77v.34a1.06 1.06 0 0 0 .25.76.9.9 0 0 0 .68.27 2.12 2.12 0 0 0 .31-.02l.22-.04a.16.16 0 0 0 .06-.03.08.08 0 0 0 .02-.07zm2.22-1.18a1.37 1.37 0 0 0-.07-.44.91.91 0 0 0-.19-.34.85.85 0 0 0-.31-.2 1.26 1.26 0 0 0-.86 0 .87.87 0 0 0-.32.2.9.9 0 0 0-.19.34 1.37 1.37 0 0 0-.07.44v.28a1.37 1.37 0 0 0 .07.44.9.9 0 0 0 .2.33.87.87 0 0 0 .3.21 1.26 1.26 0 0 0 .87 0 .85.85 0 0 0 .31-.2.91.91 0 0 0 .2-.34 1.37 1.37 0 0 0 .06-.44v-.28zm-.65.28q0 .5-.35.5a.3.3 0 0 1-.27-.13.64.64 0 0 1-.09-.37v-.28a.63.63 0 0 1 .1-.38.3.3 0 0 1 .26-.12q.35 0 .35.5v.28zm3.02.94v-1.36a2.07 2.07 0 0 0-.03-.36.82.82 0 0 0-.1-.3.56.56 0 0 0-.22-.2.75.75 0 0 0-.35-.06 1 1 0 0 0-.65.2v-.09a.08.08 0 0 0-.03-.06.08.08 0 0 0-.05-.02h-.45a.08.08 0 0 0-.06.02.08.08 0 0 0-.02.06v2.17a.08.08 0 0 0 .03.06.08.08 0 0 0 .05.02h.49a.07.07 0 0 0 .05-.02.09.09 0 0 0 .03-.06v-1.6a1.78 1.78 0 0 1 .2-.1.48.48 0 0 1 .17-.03.5.5 0 0 1 .15.01.17.17 0 0 1 .1.07.28.28 0 0 1 .03.11 1.13 1.13 0 0 1 .02.18v1.36a.09.09 0 0 0 .02.06.07.07 0 0 0 .06.02h.48a.08.08 0 0 0 .06-.02.08.08 0 0 0 .02-.06zm1.74 0v-.3q0-.08-.08-.08h-.2q-.09 0-.1-.03a.38.38 0 0 1-.03-.16v-1.18h.33a.08.08 0 0 0 .06-.03.08.08 0 0 0 .02-.06v-.33a.08.08 0 0 0-.02-.06.08.08 0 0 0-.06-.02h-.33v-.43a.07.07 0 0 0-.02-.05.07.07 0 0 0-.05-.02h-.01l-.48.08a.14.14 0 0 0-.06.03.07.07 0 0 0-.02.05v.34h-.32a.08.08 0 0 0-.06.03.08.08 0 0 0-.03.05v.27a.07.07 0 0 0 .03.06.14.14 0 0 0 .06.03l.32.05v1.18a1.18 1.18 0 0 0 .04.36.49.49 0 0 0 .13.2.43.43 0 0 0 .2.11 1.4 1.4 0 0 0 .3.03 1.34 1.34 0 0 0 .15 0l.16-.03a.08.08 0 0 0 .07-.08zm2.14-1.45a.98.98 0 0 0-.07-.38.66.66 0 0 0-.19-.26.76.76 0 0 0-.29-.15 1.5 1.5 0 0 0-.39-.04 2.62 2.62 0 0 0-.39.02l-.3.06a.09.09 0 0 0-.08.1v.32a.07.07 0 0 0 .02.06.08.08 0 0 0 .06.01h.14l.16-.02h.38a.4.4 0 0 1 .22.05q.08.05.08.23v.14h-.22a1.32 1.32 0 0 0-.75.17.6.6 0 0 0-.23.52v.04a.84.84 0 0 0 .06.33.56.56 0 0 0 .37.33.92.92 0 0 0 .25.04.88.88 0 0 0 .31-.05 1.01 1.01 0 0 0 .25-.13v.06a.08.08 0 0 0 .02.06.08.08 0 0 0 .06.02h.45a.08.08 0 0 0 .05-.02.08.08 0 0 0 .03-.06v-1.45zm-.64.98a1.04 1.04 0 0 1-.15.07.56.56 0 0 1-.18.02.38.38 0 0 1-.19-.03q-.06-.04-.06-.17v-.04a.48.48 0 0 1 .02-.13.2.2 0 0 1 .05-.1.26.26 0 0 1 .11-.05.67.67 0 0 1 .17-.02h.23v.45zm2.6.43v-.36a.06.06 0 0 0-.02-.05.08.08 0 0 0-.06-.02l-.22.02-.27.01a.36.36 0 0 1-.13-.02.24.24 0 0 1-.1-.08.41.41 0 0 1-.07-.15.84.84 0 0 1-.03-.22v-.34a.84.84 0 0 1 .03-.23.41.41 0 0 1 .07-.15.24.24 0 0 1 .1-.07.36.36 0 0 1 .13-.03l.27.01.22.02a.08.08 0 0 0 .06-.02.06.06 0 0 0 .02-.05v-.36a.08.08 0 0 0-.02-.06.16.16 0 0 0-.06-.03l-.22-.04a2.11 2.11 0 0 0-.32-.02.9.9 0 0 0-.67.26 1.06 1.06 0 0 0-.26.77v.34a1.06 1.06 0 0 0 .26.76.9.9 0 0 0 .67.27 2.11 2.11 0 0 0 .32-.02l.22-.04a.16.16 0 0 0 .06-.03.08.08 0 0 0 .02-.07zm1.72.05v-.32q0-.07-.08-.07h-.2q-.1 0-.11-.03a.38.38 0 0 1-.02-.16v-1.18h.33a.08.08 0 0 0 .05-.03.08.08 0 0 0 .03-.06v-.33a.08.08 0 0 0-.03-.06.08.08 0 0 0-.05-.02h-.33v-.43a.07.07 0 0 0-.02-.05.07.07 0 0 0-.05-.02h-.02l-.48.08a.14.14 0 0 0-.05.03.07.07 0 0 0-.03.05v.34h-.32a.08.08 0 0 0-.06.03.08.08 0 0 0-.02.05v.27a.07.07 0 0 0 .02.06.14.14 0 0 0 .06.03l.32.05v1.18a1.18 1.18 0 0 0 .05.36.49.49 0 0 0 .12.2.43.43 0 0 0 .21.11 1.4 1.4 0 0 0 .29.03 1.34 1.34 0 0 0 .15 0l.16-.03a.08.08 0 0 0 .08-.08z"/></g></svg>