<?xml version="1.0" encoding="UTF-8"?>
<svg xmlns="http://www.w3.org/2000/svg" xmlns:xlink="http://www.w3.org/1999/xlink" width="357.94pt" height="106.12pt" viewBox="0 0 357.94 106.12" version="1.1">
<defs>
<clipPath id="clip1">
  <path d="M 29 86 L 42 86 L 42 106.121094 L 29 106.121094 Z M 29 86 "/>
</clipPath>
<clipPath id="clip2">
  <path d="M 98 86 L 111 86 L 111 106.121094 L 98 106.121094 Z M 98 86 "/>
</clipPath>
<clipPath id="clip3">
  <path d="M 223 86 L 235 86 L 235 106.121094 L 223 106.121094 Z M 223 86 "/>
</clipPath>
<clipPath id="clip4">
  <path d="M 271 86 L 283 86 L 283 106.121094 L 271 106.121094 Z M 271 86 "/>
</clipPath>
<clipPath id="clip5">
  <path d="M 308 15 L 357.941406 15 L 357.941406 74 L 308 74 Z M 308 15 "/>
</clipPath>
</defs>
<g id="surface1">
<path style=" stroke:none;fill-rule:nonzero;fill:rgb(52.198792%,52.49939%,52.49939%);fill-opacity:1;" d="M 7.765625 90.964844 L 2.320313 90.964844 L 2.320313 98.292969 L 7.765625 98.292969 C 10.234375 98.292969 11.78125 96.863281 11.78125 94.621094 C 11.78125 92.375 10.234375 90.964844 7.765625 90.964844 M 7.542969 82.128906 L 2.320313 82.128906 L 2.320313 89.058594 L 7.542969 89.058594 C 9.761719 89.058594 11.472656 87.96875 11.472656 85.578125 C 11.472656 83.199219 9.761719 82.128906 7.542969 82.128906 M 7.957031 100.203125 L 0.191406 100.203125 L 0.191406 80.21875 L 7.714844 80.21875 C 11.1875 80.21875 13.59375 82.214844 13.59375 85.554688 C 13.59375 87.65625 12.339844 89.308594 10.65625 89.929688 C 12.570313 90.625 13.90625 92.285156 13.90625 94.675781 C 13.90625 98.292969 11.492188 100.203125 7.957031 100.203125 "/>
<path style=" stroke:none;fill-rule:nonzero;fill:rgb(52.198792%,52.49939%,52.49939%);fill-opacity:1;" d="M 26.175781 100.203125 L 26.175781 98.664063 C 25.199219 99.78125 23.816406 100.375 22.28125 100.375 C 20.789063 100.375 19.554688 99.925781 18.714844 99.082031 C 17.726563 98.121094 17.3125 96.800781 17.3125 95.210938 L 17.3125 86.398438 L 19.332031 86.398438 L 19.332031 94.898438 C 19.332031 97.339844 20.613281 98.566406 22.695313 98.566406 C 24.777344 98.566406 26.136719 97.308594 26.136719 94.898438 L 26.136719 86.398438 L 28.164063 86.398438 L 28.164063 100.203125 "/>
<g clip-path="url(#clip1)" clip-rule="nonzero">
<path style=" stroke:none;fill-rule:nonzero;fill:rgb(52.198792%,52.49939%,52.49939%);fill-opacity:1;" d="M 35.519531 103.542969 C 35.234375 104.300781 34.933594 104.800781 34.542969 105.171875 C 33.8125 105.863281 32.820313 106.121094 31.84375 106.121094 L 30.964844 106.121094 L 30.964844 104.324219 L 31.585938 104.324219 C 32.992188 104.324219 33.414063 103.878906 33.871094 102.613281 L 34.847656 99.925781 L 29.878906 86.398438 L 32.078125 86.398438 L 35.855469 97.476563 L 39.621094 86.398438 L 41.800781 86.398438 "/>
</g>
<path style=" stroke:none;fill-rule:nonzero;fill:rgb(52.198792%,52.49939%,52.49939%);fill-opacity:1;" d="M 49.75 100.203125 L 49.75 80.21875 L 62.15625 80.21875 L 62.15625 82.128906 L 51.882813 82.128906 L 51.882813 89.171875 L 60.636719 89.171875 L 60.636719 91.085938 L 51.882813 91.085938 L 51.882813 98.292969 L 62.15625 98.292969 L 62.15625 100.203125 "/>
<path style=" stroke:none;fill-rule:nonzero;fill:rgb(52.198792%,52.49939%,52.49939%);fill-opacity:1;" d="M 69.726563 100.203125 L 67.929688 100.203125 L 62.871094 86.398438 L 65.0625 86.398438 L 68.832031 97.476563 L 72.613281 86.398438 L 74.8125 86.398438 "/>
<path style=" stroke:none;fill-rule:nonzero;fill:rgb(52.198792%,52.49939%,52.49939%);fill-opacity:1;" d="M 84.382813 90.007813 C 83.84375 88.746094 82.617188 87.9375 81.15625 87.9375 C 79.6875 87.9375 78.464844 88.746094 77.921875 90.007813 C 77.613281 90.765625 77.566406 91.191406 77.5 92.320313 L 84.804688 92.320313 C 84.753906 91.191406 84.6875 90.765625 84.382813 90.007813 M 77.5 93.835938 C 77.5 96.863281 78.941406 98.601563 81.570313 98.601563 C 83.179688 98.601563 84.101563 98.117188 85.191406 97.03125 L 86.5625 98.234375 C 85.160156 99.640625 83.878906 100.375 81.519531 100.375 C 77.871094 100.375 75.492188 98.179688 75.492188 93.292969 C 75.492188 88.832031 77.648438 86.226563 81.15625 86.226563 C 84.71875 86.226563 86.820313 88.808594 86.820313 92.902344 L 86.820313 93.835938 "/>
<path style=" stroke:none;fill-rule:nonzero;fill:rgb(52.198792%,52.49939%,52.49939%);fill-opacity:1;" d="M 97.714844 89.03125 C 96.949219 88.28125 96.390625 88.023438 95.324219 88.023438 C 93.304688 88.023438 92.011719 89.621094 92.011719 91.722656 L 92.011719 100.203125 L 89.992188 100.203125 L 89.992188 86.398438 L 92.011719 86.398438 L 92.011719 88.078125 C 92.773438 86.925781 94.296875 86.226563 95.882813 86.226563 C 97.199219 86.226563 98.21875 86.535156 99.191406 87.515625 "/>
<g clip-path="url(#clip2)" clip-rule="nonzero">
<path style=" stroke:none;fill-rule:nonzero;fill:rgb(52.198792%,52.49939%,52.49939%);fill-opacity:1;" d="M 104.113281 103.542969 C 103.828125 104.300781 103.523438 104.800781 103.128906 105.171875 C 102.394531 105.863281 101.410156 106.121094 100.429688 106.121094 L 99.554688 106.121094 L 99.554688 104.324219 L 100.179688 104.324219 C 101.585938 104.324219 102.003906 103.878906 102.445313 102.613281 L 103.433594 99.925781 L 98.46875 86.398438 L 100.652344 86.398438 L 104.453125 97.476563 L 108.210938 86.398438 L 110.390625 86.398438 "/>
</g>
<path style=" stroke:none;fill-rule:nonzero;fill:rgb(52.198792%,52.49939%,52.49939%);fill-opacity:1;" d="M 125.242188 100.203125 L 123.359375 100.203125 L 119.738281 89.476563 L 116.148438 100.203125 L 114.273438 100.203125 L 109.894531 86.398438 L 112.089844 86.398438 L 115.253906 97.476563 L 118.875 86.398438 L 120.613281 86.398438 L 124.253906 97.476563 L 127.402344 86.398438 L 129.585938 86.398438 "/>
<path style=" stroke:none;fill-rule:nonzero;fill:rgb(52.198792%,52.49939%,52.49939%);fill-opacity:1;" d="M 140.136719 100.203125 L 140.136719 91.667969 C 140.136719 89.253906 138.84375 88.023438 136.777344 88.023438 C 134.699219 88.023438 133.324219 89.285156 133.324219 91.667969 L 133.324219 100.203125 L 131.296875 100.203125 L 131.296875 80.21875 L 133.324219 80.21875 L 133.324219 87.914063 C 134.328125 86.753906 135.652344 86.226563 137.191406 86.226563 C 140.3125 86.226563 142.164063 88.21875 142.164063 91.332031 L 142.164063 100.203125 "/>
<path style=" stroke:none;fill-rule:nonzero;fill:rgb(52.198792%,52.49939%,52.49939%);fill-opacity:1;" d="M 154.09375 90.007813 C 153.554688 88.746094 152.328125 87.9375 150.867188 87.9375 C 149.40625 87.9375 148.164063 88.746094 147.628906 90.007813 C 147.328125 90.765625 147.265625 91.191406 147.21875 92.320313 L 154.503906 92.320313 C 154.449219 91.191406 154.394531 90.765625 154.09375 90.007813 M 147.21875 93.835938 C 147.21875 96.863281 148.644531 98.601563 151.289063 98.601563 C 152.882813 98.601563 153.808594 98.117188 154.910156 97.03125 L 156.285156 98.234375 C 154.878906 99.640625 153.589844 100.375 151.230469 100.375 C 147.578125 100.375 145.1875 98.179688 145.1875 93.292969 C 145.1875 88.832031 147.351563 86.226563 150.867188 86.226563 C 154.421875 86.226563 156.535156 88.808594 156.535156 92.902344 L 156.535156 93.835938 "/>
<path style=" stroke:none;fill-rule:nonzero;fill:rgb(52.198792%,52.49939%,52.49939%);fill-opacity:1;" d="M 167.421875 89.03125 C 166.671875 88.28125 166.101563 88.023438 165.035156 88.023438 C 163.015625 88.023438 161.726563 89.621094 161.726563 91.722656 L 161.726563 100.203125 L 159.703125 100.203125 L 159.703125 86.398438 L 161.726563 86.398438 L 161.726563 88.078125 C 162.476563 86.925781 163.996094 86.226563 165.597656 86.226563 C 166.914063 86.226563 167.921875 86.535156 168.910156 87.515625 "/>
<path style=" stroke:none;fill-rule:nonzero;fill:rgb(52.198792%,52.49939%,52.49939%);fill-opacity:1;" d="M 177.566406 90.007813 C 177.046875 88.746094 175.8125 87.9375 174.351563 87.9375 C 172.894531 87.9375 171.65625 88.746094 171.125 90.007813 C 170.8125 90.765625 170.761719 91.191406 170.695313 92.320313 L 178.007813 92.320313 C 177.941406 91.191406 177.890625 90.765625 177.566406 90.007813 M 170.695313 93.835938 C 170.695313 96.863281 172.140625 98.601563 174.773438 98.601563 C 176.367188 98.601563 177.300781 98.117188 178.398438 97.03125 L 179.769531 98.234375 C 178.359375 99.640625 177.078125 100.375 174.71875 100.375 C 171.0625 100.375 168.679688 98.179688 168.679688 93.292969 C 168.679688 88.832031 170.851563 86.226563 174.351563 86.226563 C 177.914063 86.226563 180.027344 88.808594 180.027344 92.902344 L 180.027344 93.835938 "/>
<path style=" stroke:none;fill-rule:nonzero;fill:rgb(52.198792%,52.49939%,52.49939%);fill-opacity:1;" d="M 183.132813 104.242188 L 183.132813 97.730469 L 185.609375 97.730469 L 185.609375 102.027344 Z M 183.132813 104.242188 "/>
<path style=" stroke:none;fill-rule:nonzero;fill:rgb(52.198792%,52.49939%,52.49939%);fill-opacity:1;" d="M 202.941406 82.128906 L 197.84375 82.128906 L 197.84375 90.070313 L 202.941406 90.070313 C 205.449219 90.070313 207.1875 88.71875 207.1875 86.089844 C 207.1875 83.453125 205.449219 82.128906 202.941406 82.128906 M 203.136719 91.980469 L 197.84375 91.980469 L 197.84375 100.203125 L 195.707031 100.203125 L 195.707031 80.21875 L 203.136719 80.21875 C 206.800781 80.21875 209.320313 82.480469 209.320313 86.089844 C 209.320313 89.671875 206.800781 91.980469 203.136719 91.980469 "/>
<path style=" stroke:none;fill-rule:nonzero;fill:rgb(52.198792%,52.49939%,52.49939%);fill-opacity:1;" d="M 219.449219 93.835938 L 215.574219 93.835938 C 213.5 93.835938 212.480469 94.675781 212.480469 96.277344 C 212.480469 97.875 213.476563 98.636719 215.660156 98.636719 C 216.835938 98.636719 217.871094 98.550781 218.746094 97.703125 C 219.21875 97.257813 219.449219 96.46875 219.449219 95.320313 Z M 219.449219 100.203125 L 219.449219 98.886719 C 218.320313 100.003906 217.3125 100.375 215.46875 100.375 C 213.558594 100.375 212.429688 100.003906 211.566406 99.109375 C 210.886719 98.4375 210.519531 97.394531 210.519531 96.304688 C 210.519531 93.886719 212.210938 92.320313 215.296875 92.320313 L 219.449219 92.320313 L 219.449219 90.996094 C 219.449219 88.972656 218.4375 87.96875 215.90625 87.96875 C 214.15625 87.96875 213.25 88.382813 212.429688 89.539063 L 211.054688 88.277344 C 212.296875 86.671875 213.695313 86.226563 215.933594 86.226563 C 219.648438 86.226563 221.46875 87.832031 221.46875 90.828125 L 221.46875 100.203125 "/>
<g clip-path="url(#clip3)" clip-rule="nonzero">
<path style=" stroke:none;fill-rule:nonzero;fill:rgb(52.198792%,52.49939%,52.49939%);fill-opacity:1;" d="M 228.683594 103.542969 C 228.40625 104.300781 228.09375 104.800781 227.695313 105.171875 C 226.96875 105.863281 225.984375 106.121094 225.011719 106.121094 L 224.132813 106.121094 L 224.132813 104.324219 L 224.75 104.324219 C 226.152344 104.324219 226.574219 103.878906 227.023438 102.613281 L 228.007813 99.925781 L 223.039063 86.398438 L 225.21875 86.398438 L 229.019531 97.476563 L 232.78125 86.398438 L 234.972656 86.398438 "/>
</g>
<path style=" stroke:none;fill-rule:nonzero;fill:rgb(52.198792%,52.49939%,52.49939%);fill-opacity:1;" d="M 248.632813 83.28125 L 244.878906 93.839844 L 252.34375 93.839844 Z M 254.558594 100.203125 L 252.957031 95.683594 L 244.226563 95.683594 L 242.625 100.203125 L 240.363281 100.203125 L 247.710938 80.21875 L 249.5 80.21875 L 256.832031 100.203125 "/>
<path style=" stroke:none;fill-rule:nonzero;fill:rgb(52.198792%,52.49939%,52.49939%);fill-opacity:1;" d="M 267.402344 100.203125 L 267.402344 91.703125 C 267.402344 89.253906 266.089844 88.023438 264.019531 88.023438 C 261.941406 88.023438 260.589844 89.285156 260.589844 91.703125 L 260.589844 100.203125 L 258.570313 100.203125 L 258.570313 86.398438 L 260.589844 86.398438 L 260.589844 87.914063 C 261.574219 86.785156 262.921875 86.226563 264.472656 86.226563 C 265.953125 86.226563 267.160156 86.671875 268.003906 87.515625 C 268.980469 88.476563 269.429688 89.761719 269.429688 91.359375 L 269.429688 100.203125 "/>
<g clip-path="url(#clip4)" clip-rule="nonzero">
<path style=" stroke:none;fill-rule:nonzero;fill:rgb(52.198792%,52.49939%,52.49939%);fill-opacity:1;" d="M 276.640625 103.542969 C 276.363281 104.300781 276.046875 104.800781 275.660156 105.171875 C 274.929688 105.863281 273.949219 106.121094 272.964844 106.121094 L 272.097656 106.121094 L 272.097656 104.324219 L 272.707031 104.324219 C 274.117188 104.324219 274.539063 103.878906 274.992188 102.613281 L 275.976563 99.925781 L 271 86.398438 L 273.199219 86.398438 L 276.980469 97.476563 L 280.734375 86.398438 L 282.925781 86.398438 "/>
</g>
<path style=" stroke:none;fill-rule:nonzero;fill:rgb(52.198792%,52.49939%,52.49939%);fill-opacity:1;" d="M 297.769531 100.203125 L 295.898438 100.203125 L 292.273438 89.476563 L 288.675781 100.203125 L 286.796875 100.203125 L 282.414063 86.398438 L 284.613281 86.398438 L 287.785156 97.476563 L 291.40625 86.398438 L 293.144531 86.398438 L 296.796875 97.476563 L 299.9375 86.398438 L 302.128906 86.398438 "/>
<path style=" stroke:none;fill-rule:nonzero;fill:rgb(52.198792%,52.49939%,52.49939%);fill-opacity:1;" d="M 312.675781 100.203125 L 312.675781 91.667969 C 312.675781 89.253906 311.390625 88.023438 309.3125 88.023438 C 307.230469 88.023438 305.855469 89.285156 305.855469 91.667969 L 305.855469 100.203125 L 303.828125 100.203125 L 303.828125 80.21875 L 305.855469 80.21875 L 305.855469 87.914063 C 306.867188 86.753906 308.191406 86.226563 309.730469 86.226563 C 312.84375 86.226563 314.703125 88.21875 314.703125 91.332031 L 314.703125 100.203125 "/>
<path style=" stroke:none;fill-rule:nonzero;fill:rgb(52.198792%,52.49939%,52.49939%);fill-opacity:1;" d="M 326.621094 90.007813 C 326.089844 88.746094 324.859375 87.9375 323.390625 87.9375 C 321.933594 87.9375 320.703125 88.746094 320.175781 90.007813 C 319.859375 90.765625 319.800781 91.191406 319.75 92.320313 L 327.050781 92.320313 C 326.992188 91.191406 326.933594 90.765625 326.621094 90.007813 M 319.75 93.835938 C 319.75 96.863281 321.179688 98.601563 323.816406 98.601563 C 325.414063 98.601563 326.347656 98.117188 327.433594 97.03125 L 328.816406 98.234375 C 327.40625 99.640625 326.113281 100.375 323.761719 100.375 C 320.113281 100.375 317.734375 98.179688 317.734375 93.292969 C 317.734375 88.832031 319.882813 86.226563 323.390625 86.226563 C 326.960938 86.226563 329.0625 88.808594 329.0625 92.902344 L 329.0625 93.835938 "/>
<path style=" stroke:none;fill-rule:nonzero;fill:rgb(52.198792%,52.49939%,52.49939%);fill-opacity:1;" d="M 339.957031 89.03125 C 339.195313 88.28125 338.640625 88.023438 337.566406 88.023438 C 335.550781 88.023438 334.269531 89.621094 334.269531 91.722656 L 334.269531 100.203125 L 332.234375 100.203125 L 332.234375 86.398438 L 334.269531 86.398438 L 334.269531 88.078125 C 335.019531 86.925781 336.53125 86.226563 338.128906 86.226563 C 339.449219 86.226563 340.460938 86.535156 341.441406 87.515625 "/>
<path style=" stroke:none;fill-rule:nonzero;fill:rgb(52.198792%,52.49939%,52.49939%);fill-opacity:1;" d="M 350.109375 90.007813 C 349.585938 88.746094 348.34375 87.9375 346.882813 87.9375 C 345.429688 87.9375 344.195313 88.746094 343.664063 90.007813 C 343.347656 90.765625 343.292969 91.191406 343.246094 92.320313 L 350.535156 92.320313 C 350.480469 91.191406 350.425781 90.765625 350.109375 90.007813 M 343.246094 93.835938 C 343.246094 96.863281 344.667969 98.601563 347.304688 98.601563 C 348.914063 98.601563 349.828125 98.117188 350.925781 97.03125 L 352.300781 98.234375 C 350.894531 99.640625 349.605469 100.375 347.246094 100.375 C 343.605469 100.375 341.21875 98.179688 341.21875 93.292969 C 341.21875 88.832031 343.375 86.226563 346.882813 86.226563 C 350.453125 86.226563 352.550781 88.808594 352.550781 92.902344 L 352.550781 93.835938 "/>
<path style=" stroke:none;fill-rule:nonzero;fill:rgb(57.598877%,14.498901%,50.19989%);fill-opacity:1;" d="M 215.054688 6.558594 L 215.054688 26.226563 L 234.890625 26.226563 C 244.894531 26.226563 249.898438 22.828125 249.898438 16.039063 C 249.898438 9.71875 245.023438 6.558594 235.285156 6.558594 Z M 215.054688 32.792969 L 215.054688 56.726563 L 205.109375 56.726563 L 205.109375 0.0078125 L 238.28125 0.0078125 C 244.953125 0.0078125 250.285156 1.492188 254.230469 4.472656 C 258.183594 7.429688 260.160156 11.265625 260.160156 15.96875 C 260.160156 20.488281 258.496094 24.289063 255.1875 27.339844 C 251.277344 30.964844 245.636719 32.792969 238.28125 32.792969 "/>
<path style=" stroke:none;fill-rule:nonzero;fill:rgb(57.598877%,14.498901%,50.19989%);fill-opacity:1;" d="M 295.3125 42.410156 L 295.3125 35.632813 C 293.882813 36.523438 288.941406 37.394531 280.460938 38.246094 C 272.769531 39.015625 268.957031 41.261719 268.957031 44.953125 C 268.957031 49.742188 272.191406 52.132813 278.714844 52.132813 C 283.03125 52.132813 286.859375 51.191406 290.242188 49.285156 C 293.601563 47.390625 295.3125 45.09375 295.3125 42.410156 M 270.585938 27.96875 L 262.289063 27.96875 C 262.679688 18.800781 270.023438 14.222656 284.414063 14.222656 C 288.714844 14.222656 292.597656 14.839844 296.015625 16.050781 C 301.605469 18.007813 304.382813 21.261719 304.382813 25.804688 L 304.382813 49.6875 C 304.382813 51.3125 305.371094 52.132813 307.308594 52.132813 C 307.941406 52.132813 308.9375 51.980469 310.320313 51.667969 L 310.320313 56.726563 C 307.738281 57.25 306.09375 57.515625 305.421875 57.515625 C 301.773438 57.515625 299.230469 56.847656 297.769531 55.542969 C 296.636719 54.585938 296.015625 53.140625 295.859375 51.191406 C 290.492188 55.660156 284.015625 57.894531 276.4375 57.894531 C 271.476563 57.894531 267.425781 56.789063 264.3125 54.585938 C 261.160156 52.367188 259.605469 49.507813 259.605469 45.980469 C 259.605469 38.398438 265.046875 34.089844 275.964844 33.027344 L 290.8125 31.597656 C 293.960938 31.296875 295.542969 29.660156 295.542969 26.707031 C 295.542969 22.222656 291.335938 20 282.890625 20 C 278.386719 20 275.105469 20.917969 273.097656 22.75 C 271.851563 23.976563 271.015625 25.699219 270.585938 27.96875 "/>
<g clip-path="url(#clip5)" clip-rule="nonzero">
<path style=" stroke:none;fill-rule:nonzero;fill:rgb(57.598877%,14.498901%,50.19989%);fill-opacity:1;" d="M 333.625 49.066406 L 347.992188 15.414063 L 357.9375 15.414063 C 353.769531 24.40625 347.320313 37.910156 338.574219 55.917969 C 335.484375 62.039063 333.273438 66.03125 331.9375 67.9375 C 330.210938 70.410156 328.3125 72.019531 326.269531 72.761719 C 324.644531 73.328125 321.738281 73.617188 317.578125 73.617188 C 316.933594 73.617188 315.683594 73.394531 313.796875 72.996094 L 313.796875 66.667969 C 315.476563 67.144531 317.304688 67.386719 319.238281 67.386719 C 321.507813 67.386719 323.132813 66.847656 324.121094 65.792969 C 324.980469 64.898438 326.53125 62.246094 328.800781 57.820313 L 308.800781 15.414063 L 319.058594 15.414063 L 333.367188 49.066406 "/>
</g>
<path style=" stroke:none;fill-rule:nonzero;fill:rgb(52.198792%,52.49939%,52.49939%);fill-opacity:1;" d="M 124.558594 37.066406 L 117.894531 44.804688 L 98.425781 44.804688 L 98.425781 19.335938 L 104.933594 12.003906 L 124.558594 12.003906 Z M 162.351563 42.082031 L 162.351563 7.386719 C 162.351563 7.386719 162.371094 0.00390625 154.976563 0.00390625 L 100.214844 0.00390625 C 98.015625 0.00390625 96.15625 0.835938 94.644531 2.511719 L 85.539063 13.039063 C 84.347656 14.492188 83.75 15.917969 83.75 17.890625 L 83.75 44.804688 L 86.050781 49.480469 L 83.75 49.480469 L 81.441406 44.839844 L 79.128906 44.839844 C 75.152344 44.839844 75.152344 40.855469 75.152344 40.855469 L 75.152344 17.890625 C 75.152344 15.917969 74.585938 15.078125 73.328125 13.039063 L 66.269531 2.511719 C 64.734375 0.484375 62.894531 0.00390625 60.683594 0.00390625 L 7.386719 0.00390625 C 7.082031 0.00390625 6.773438 0.0351563 6.46875 0.0625 C 2.511719 0.429688 0.972656 3.078125 0.378906 5.101563 C 0.167969 5.726563 0.0546875 6.371094 0.0234375 7.015625 C 0 7.253906 0 7.386719 0 7.386719 L 0 49.527344 C 0 53.617188 3.3125 56.894531 7.386719 56.894531 C 11.445313 56.894531 14.746094 53.617188 14.753906 49.527344 L 14.753906 14.675781 L 30.140625 14.675781 L 30.140625 49.527344 C 30.160156 53.617188 33.460938 56.894531 37.527344 56.894531 C 41.59375 56.894531 44.886719 53.617188 44.910156 49.527344 L 44.910156 14.753906 L 55.265625 14.753906 L 60.308594 22.222656 L 60.308594 49.527344 C 60.40625 51.515625 61.101563 53.195313 62.339844 54.628906 C 63.601563 56.054688 65.410156 56.773438 67.757813 56.828125 L 122.46875 56.828125 C 124.660156 56.828125 126.507813 55.996094 128.035156 54.296875 L 137.140625 43.808594 C 138.332031 42.339844 138.933594 40.714844 138.933594 38.925781 L 138.933594 12.003906 L 138.953125 12.003906 L 136.789063 7.628906 L 139.105469 7.628906 L 141.253906 12.003906 L 143.558594 12.003906 C 143.558594 12.003906 147.535156 12.003906 147.535156 15.988281 L 147.535156 49.527344 C 147.535156 49.527344 147.542969 56.894531 154.90625 56.894531 L 185.480469 56.894531 C 187.679688 56.894531 189.785156 55.996094 191.308594 54.296875 L 202.117188 42.082031 "/>
</g>
</svg>
