<svg xmlns="http://www.w3.org/2000/svg" id="Layer_1" viewBox="0 0 56.5 18" enable-background="new 0 0 56.5 18"><style>.st1{fill:#fff}</style><g id="Badges"><g id="DE" transform="translate(-24 -436)"><g id="Badge-_x2F_-de_x5F_de-_x2F_-pay_x5F_now-_x2F_-descriptive-_x2F_-horizontal-_x2F_pink" transform="translate(24 436)"><g id="Group-6"><g id="BG-_x2F_-Radius-5"><defs><filter id="Adobe_OpacityMaskFilter" filterUnits="userSpaceOnUse" x="0" y="0" width="56.5" height="18"><feColorMatrix values="1 0 0 0 0 0 1 0 0 0 0 0 1 0 0 0 0 0 1 0"/></filter></defs><mask maskUnits="userSpaceOnUse" x="0" y="0" width="56.5" height="18" id="mask-2_1_"><g filter="url(#Adobe_OpacityMaskFilter)"><path id="path-1_1_" class="st1" d="M2 0h52.4c1.1 0 2 .9 2 2v14c0 1.1-.9 2-2 2H2c-1.1 0-2-.9-2-2V2C0 .9.9 0 2 0z"/></g></mask><g id="Color-_x2F_-Pink" mask="url(#mask-2_1_)"><path id="BG_1_" fill="#eb6f93" d="M0 0h56.5v18H0z"/></g></g><g id="Icons-_x2F_-Pay-now-_x2F_-White" transform="translate(16 5)"><path id="_Path_" class="st1" d="M-6 6.9c.3.3.3.7 0 1-.3.3-.7.3-1 0l-1.6-1.5c-.4-.4-.5-.9-.2-1.2l.1-.1c.2-.2.6-.3.9-.1.1.1.3.1.4 0 .1-.1.1-.3 0-.4-.6-.3-1.3-.3-1.7.2l-.1.1c-.5.5-.4 1.4.2 2l1.6 1.5c.5.5 1.3.5 1.8 0l.1-.1c.5-.5.5-1.3 0-1.7-.1-.1-.3-.1-.4 0-.2 0-.2.2-.1.3z"/><path id="_Path_2" class="st1" d="M-6.9-1.3l.6 5.1c0 .2.2.3.3.2.2 0 .3-.2.2-.3l-.6-5.2c-.1-.4.2-.9.5-1 .2 0 .4 0 .6.1.2.2.4.4.4.6l1.1 4.6c.1.2.2.3.4.2.2 0 .2-.2.2-.3l-1.1-4.6c-.1-.3-.3-.6-.6-.8-.3-.3-.7-.3-1-.2-.7.1-1.2.9-1 1.6z"/><path id="_Path_3" class="st1" d="M-1 4.7L.3-1.5C.4-2.1 0-2.8-.6-3c-.8-.2-1.5.2-1.7 1l-1.4 4.7c0 .1 0 .3.2.3.1 0 .3 0 .4-.2l1.4-4.7c.1-.4.6-.7 1-.6.4.1.6.5.5.9l-1.3 6.2c0 .1.1.3.2.3.1.1.3 0 .3-.2z"/><path id="Shape" class="st1" d="M-4.2 10.6c-2 0-3.7-1.4-3.7-3.5 0-.1-.1-.2-.3-.2s-.3.1-.3.3c0 2.4 2 4 4.3 4 .2 0 .3-.1.3-.3 0-.1-.1-.3-.3-.3z"/><path id="_Path_4" class="st1" d="M-5.2 5.9c0 .2-.1.3-.3.4h-.1c-.3.2-.8.1-1-.2l-1.2-1.8c-.3-.5-.3-1 0-1.2h.1c.5-.3.8-.1 1.2.4l1 1.5c.1.1.3.1.4 0 .1 0 .2-.2.1-.3l-1-1.5c-.5-.7-1.1-1-1.9-.6H-8c-.6.4-.7 1.3-.2 2L-7 6.4c.4.6 1.2.7 1.8.3h.1c.2-.2.4-.4.5-.7 0-.1 0-.3-.2-.3-.2-.1-.3 0-.4.2z"/><path id="Shape_1_" class="st1" d="M-3.3 6.8c-.6.3-1 .9-1 1.8 0 .2.1.3.3.3.2 0 .3-.1.3-.3 0-.8.4-1.3.9-1.5.2-.1.5-.1.8 0h.1c.4.1.5-.5.1-.5L-4 6.1c-1-.3-1.2-.6-1-1.2.1-.3.2-.4.5-.5h.6l3.3.7h.1c.1 0 .1.1.2.1.2.3.4.7.3 1.4-.2 2.5-1.4 4-4.2 4-.2 0-.3.1-.3.3s.1.3.3.3C-1 11.2.4 9.4.6 6.7.7 5.8.5 5.3.2 4.9c-.2-.2-.4-.3-.5-.3l-3.3-.7h-.9c-.5 0-.8.3-1 .8-.3.9 0 1.6 1.4 1.9l.8.2z"/></g></g><path id="Sofort.-Copy" class="st1" d="M24.8 12.4c1.2 0 2.2-.8 2.2-2 0-1.1-.8-1.6-1.8-1.9-.6-.2-1-.3-1-.8 0-.4.3-.7.7-.7.4 0 .6.2.8.5l1-.6c-.3-.7-1-1.1-1.8-1.1-1.2 0-2 .9-2 1.9 0 .8.5 1.4 1.7 1.8.7.2 1.1.3 1.1.8s-.4.8-.9.8-1-.4-1.2-.7l-.8.9c.4.7 1.2 1.1 2 1.1zm5.3 0c-1.3 0-2.3-1-2.3-2.3s1.1-2.3 2.3-2.3c1.3 0 2.3 1 2.3 2.3s-1 2.3-2.3 2.3zm0-1.2c.6 0 1.1-.5 1.1-1.1 0-.6-.5-1.1-1.1-1.1-.6 0-1.1.4-1.1 1.1 0 .6.5 1.1 1.1 1.1zm5.7-4.1V6h-.2c-1.5 0-2.2 1-2.2 2.2v4.1h1.2v-1.8c0-.6.5-1 1.1-1.1V8.2c-.5 0-.9.1-1.1.4v-.4c0-.8.5-1.1 1.2-1.1zm3.1 5.3c-1.3 0-2.3-1-2.3-2.3s1.1-2.3 2.3-2.3c1.3 0 2.3 1 2.3 2.3s-1 2.3-2.3 2.3zm0-1.2c.6 0 1.1-.5 1.1-1.1 0-.7-.5-1.1-1.1-1.1s-1.1.5-1.1 1.1c-.1.6.4 1.1 1.1 1.1zm4.5-2.8v-.5h-1.2v4.4h1.2v-2c0-.7.4-1.1 1.2-1.1V7.8c-.6 0-1 .2-1.2.6zm3.4 1.6V9c.3.3.7.4 1.1.4V8.2c-.7 0-1.1-.5-1.1-1.1v-.6h-1.2v3.6c0 1.2.7 2.2 2.2 2.2h.2v-1.2c-.7 0-1.2-.3-1.2-1.1zm2.9 2.3c.4 0 .8-.4.8-.8s-.4-.8-.8-.8c-.5 0-.8.4-.8.8s.4.8.8.8z"/></g></g></g></svg>